<svg xmlns="http://www.w3.org/2000/svg" xmlns:xlink="http://www.w3.org/1999/xlink" width="44.576202392578125" height="44.41510009765625" viewBox="0 0 44.576202392578125 44.41510009765625" fill="none"><g opacity="1"  transform="translate(0.000030517578125 0)  rotate(0)"><g opacity="1"  transform="translate(0 0)  rotate(0)"><path id="路径 2" fill-rule="evenodd" style="fill:#00ADEE" opacity="0" d="M0 44L43.97 44L43.97 0L0 0L0 44Z"></path><g opacity="1"  transform="translate(0 0)  rotate(0)"><g opacity="1"  transform="translate(0.603302001953125 0.41192626953125)  rotate(0)"><path id="路径 3" fill-rule="evenodd" style="fill:#00ADEE" opacity="0.6" d="M38.9029 0L15.0029 0C12.2029 0 9.93289 2.27 9.93289 5.07L9.93289 28.99C9.93289 31.79 12.2029 34.06 15.0029 34.06L38.9029 34.06C41.7029 34.06 43.9729 31.79 43.9729 28.99L43.9729 5.07L43.9729 5.07C43.9729 2.27 41.7029 0 38.9029 0Z"></path><path id="路径 4" fill-rule="evenodd" style="fill:#00ADEE" opacity="0.81" d="M43.7769,37.3932v5.43c0,0.64 -0.52,1.16 -1.15,1.16h-5.43c-0.64,0 -1.16,-0.52 -1.16,-1.16v-5.43c0,-0.64 0.52,-1.15 1.16,-1.15h5.43c0.63,0 1.15,0.51 1.15,1.15zM8.64692,0.75325v3.50999c0,0.41 -0.33,0.74 -0.74,0.74h-3.51c-0.41,0 -0.74,-0.33 -0.74,-0.74v-3.50999c0,-0.41 0.33,-0.74 0.74,-0.74h3.51c0.41,0 0.74,0.33 0.74,0.74z"></path><path id="路径 5" fill-rule="evenodd" style="fill:#00ADEE" opacity="0.8" d="M23.34 16.5532L4.08 16.5532C1.83 16.5532 0 18.3832 0 20.6432L0 39.9132C0 42.1732 1.83 44.0032 4.08 44.0032L23.34 44.0032C25.6 44.0032 27.43 42.1732 27.43 39.9132L27.43 20.6432C27.43 18.3832 25.6 16.5532 23.34 16.5532Z"></path></g></g></g></g></svg>
