<svg xmlns="http://www.w3.org/2000/svg" version="1.1">
  <defs>
    <linearGradient id="grad1" x1="0%" y1="0%" x2="0%" y2="100%">
      <stop offset="0%" style="stop-color:#74C6BE;stop-opacity:1" />
      <stop offset="100%" style="stop-color:#72AFD3;stop-opacity:1" />
    </linearGradient>
  </defs>

<path fill="url(#grad1)" d="M29.307 42.996l-6.72 47.624a2.555 2.555 0 0 1-2.112 2.167 2.551 2.551 0 0 1-2.698-1.36L.7 57.929a6.391 6.391 0 0 1-.69-2.98L.7 9.261a2.045 2.045 0 0 1 1.373-1.904A2.05 2.05 0 0 1 4.336 8L27.43 36.24a8.773 8.773 0 0 1 1.877 6.755zm-.725-8.404a7.2 7.2 0 0 0 6.783 2.546l57.401-9.653a1.917 1.917 0 0 0 1.546-1.47 1.896 1.896 0 0 0-.794-1.973L59.212.817a4.738 4.738 0 0 0-2.864-.814L6.737 2.107A2.295 2.295 0 0 0 4.743 3.46a2.305 2.305 0 0 0 .317 2.388l23.522 28.745zm67.648-4.409a2.35 2.35 0 0 0-2.208-.842l-55.966 9.412a8.486 8.486 0 0 0-6.997 7.183l-6.665 47.14a3.745 3.745 0 0 0 4.982 4.043l46.52-16.807a3.732 3.732 0 0 0 2.194-2.119l18.492-45.685c.31-.78.18-1.67-.352-2.325z"/>
</svg>
